<?xml version="1.0" encoding="UTF-8" standalone="no"?>
<!DOCTYPE svg PUBLIC "-//W3C//DTD SVG 1.1//EN" "http://www.w3.org/Graphics/SVG/1.1/DTD/svg11.dtd">
<svg width="100%" height="100%" viewBox="0 0 658 658" version="1.1" xmlns="http://www.w3.org/2000/svg" xmlns:xlink="http://www.w3.org/1999/xlink" xml:space="preserve" xmlns:serif="http://www.serif.com/" style="fill-rule:evenodd;clip-rule:evenodd;stroke-linejoin:round;stroke-miterlimit:2;">
    <g transform="matrix(1,0,0,1,-8895.551181,-5631)">
        <g transform="matrix(1,0,0,1,-0.897638,0)">
            <g transform="matrix(0.738422,0,0,0.658,2410.55013,2038.32)">
                <path d="M9077.49,6010.5L8787.955,6010.5C8785.472,6010.5 8783.455,6008.237 8783.455,6005.45L8783.455,5914.55C8783.455,5911.763 8785.472,5909.5 8787.955,5909.5L9114.735,5909.5C9122.323,5907.401 9151.115,5898.877 9162.474,5887.487C9174.916,5875.011 9181.749,5849.015 9184,5839.03L9184,5465.05C9184,5462.263 9186.016,5460 9188.5,5460L9269.5,5460C9271.984,5460 9274,5462.263 9274,5465.05L9274,5794.242C9275.921,5800.152 9279.497,5809.007 9285.046,5811.291C9290.438,5813.512 9298.501,5807.562 9303.277,5805.226L9509.046,5574.309C9510.802,5572.338 9513.654,5572.338 9515.41,5574.309L9572.685,5638.585C9574.442,5640.555 9574.442,5643.756 9572.685,5645.726L9364.779,5879.044C9362.407,5884.748 9359.448,5893.623 9361.877,5897.813C9364.847,5902.937 9372.816,5907.225 9377.76,5909.5L9670.045,5909.5C9672.528,5909.5 9674.545,5911.763 9674.545,5914.55L9674.545,6005.45C9674.545,6008.237 9672.528,6010.5 9670.045,6010.5L9330.905,6010.5C9319.082,6014.414 9302.068,6021.089 9293.952,6029.226C9283.651,6039.556 9277.194,6059.155 9274,6071.26L9274,6454.95C9274,6457.737 9271.984,6460 9269.5,6460L9188.5,6460C9186.016,6460 9184,6457.737 9184,6454.95L9184,6123.978C9182.148,6118.612 9178.986,6111.626 9174.883,6110.831C9168.834,6109.659 9158.522,6113.719 9153.824,6115.782L8948.954,6345.691C8947.198,6347.662 8944.346,6347.662 8942.59,6345.691L8885.315,6281.415C8883.558,6279.445 8883.558,6276.244 8885.315,6274.274L9094.496,6039.525C9096.527,6033.89 9098.422,6026.542 9096.22,6022.908C9092.521,6016.803 9081.553,6012.083 9077.49,6010.5Z"/>
            </g>
            <g transform="matrix(0.522143,-0.522143,0.374923,0.374923,2217.2212,8589.494533)">
                <path d="M9274,6081.307L9274,6454.95C9274,6457.737 9271.984,6460 9269.5,6460L9188.5,6460C9186.016,6460 9184,6457.737 9184,6454.95L9184,6081.897L9274,6081.307Z"/>
            </g>
            <g transform="matrix(0.522143,-0.522143,0.373528,0.373528,2134.484567,8506.7579)">
                <path d="M9184,5839.517L9184,5465.05C9184,5462.263 9186.016,5460 9188.5,5460L9269.5,5460C9271.984,5460 9274,5462.263 9274,5465.05L9274,5840.107L9184,5839.517Z"/>
            </g>
        </g>
    </g>
</svg>
