<?xml version="1.0" encoding="UTF-8" standalone="no"?>
<!DOCTYPE svg PUBLIC "-//W3C//DTD SVG 1.1//EN" "http://www.w3.org/Graphics/SVG/1.1/DTD/svg11.dtd">
<svg width="100%" height="100%" viewBox="0 0 893 152" version="1.1" xmlns="http://www.w3.org/2000/svg" xmlns:xlink="http://www.w3.org/1999/xlink" xml:space="preserve" xmlns:serif="http://www.serif.com/" style="fill-rule:evenodd;clip-rule:evenodd;stroke-linejoin:round;stroke-miterlimit:2;">
    <g transform="matrix(1,0,0,1,-1223.625,-464.416209)">
        <g>
            <g transform="matrix(0.761511,0,0,0.761511,908.359377,-377.038399)">
                <path d="M1555.43,1300.23L1535.9,1253.04L1473.26,1253.04L1455.37,1300.23L1424.45,1300.23L1504.99,1104.98L1586.34,1300.23L1555.43,1300.23ZM1482.21,1228.64L1527.77,1228.64L1504.99,1170.88L1482.21,1228.64Z" style="fill:white;fill-rule:nonzero;"/>
            </g>
            <g transform="matrix(0.761511,0,0,0.761511,908.359377,-377.038399)">
                <path d="M1372.34,1111.52L1401.62,1111.52L1401.62,1300.25L1372.34,1300.25L1372.34,1217.27L1300.75,1217.27L1300.75,1300.25L1271.46,1300.25L1271.46,1111.52L1300.75,1111.52L1300.75,1191.24L1372.34,1191.24L1372.34,1111.52Z" style="fill:white;fill-rule:nonzero;"/>
            </g>
            <g transform="matrix(0.761511,0,0,0.761511,908.359377,-377.038399)">
                <path d="M986.1,1303.47C943.08,1303.47 892.44,1264.42 892.44,1204.22C892.44,1144.02 943.08,1108.23 986.1,1108.23C1029.12,1108.23 1083.61,1137.51 1083.61,1204.22C1083.61,1255.17 1045.38,1303.47 986.1,1303.47ZM986.1,1275.81C1032.36,1275.81 1055.14,1236.1 1055.14,1204.22C1055.14,1157.85 1016.64,1134.43 986.1,1134.43C955.56,1134.43 920.91,1161.1 920.91,1204.22C920.91,1244.08 955.56,1275.81 986.1,1275.81Z" style="fill:white;fill-rule:nonzero;"/>
            </g>
            <g transform="matrix(0.761511,0,0,0.761511,908.359377,-377.038399)">
                <path d="M864.76,1175.77C864.76,1197.74 864.76,1217.26 833.85,1235.97C833.85,1235.97 850.93,1243.29 859.07,1262.82C867.21,1282.34 864.77,1303.49 864.77,1303.49L837.11,1303.49C837.11,1303.49 837.11,1281.53 830.6,1271.76C824.09,1262 822.46,1253.05 800.5,1248.17C778.54,1243.29 762.27,1248.17 762.27,1248.17L762.27,1303.49L732.93,1303.49L732.93,1114.76L797.35,1114.76C829.67,1114.76 864.77,1137.54 864.77,1175.77L864.76,1175.77ZM762.26,1139.16L762.26,1222.14L794.8,1222.14C828.97,1222.14 837.1,1195.3 835.48,1175.77C835.48,1160.31 816.77,1137.54 794.8,1139.16L762.26,1139.16Z" style="fill:white;fill-rule:nonzero;"/>
            </g>
            <g transform="matrix(0.761511,0,0,0.761511,908.359377,-377.038399)">
                <path d="M698.85,1140.79L617.49,1140.79L617.49,1184.72L695.59,1184.72L695.59,1212.38L617.49,1212.38L617.49,1274.21L700.47,1274.21L700.47,1303.49L588.21,1303.49L588.21,1114.76L698.85,1114.76L698.85,1140.79Z" style="fill:white;fill-rule:nonzero;"/>
            </g>
            <g transform="matrix(0.761511,0,0,0.761511,908.359377,-377.038399)">
                <path d="M539.27,1114.76L564.5,1114.76L489.66,1303.49L414,1114.76L440.03,1114.76L489.65,1233.53L539.27,1114.76Z" style="fill:white;fill-rule:nonzero;"/>
            </g>
            <g transform="matrix(0.761511,0,0,0.761511,908.359377,-377.038399)">
                <path d="M1162.45,1192.41C1148.78,1262.69 1116.62,1275.38 1102.25,1272.94L1102.25,1301.42C1171.4,1286.77 1174.65,1252.61 1187.67,1192.41C1198.08,1144.25 1229.43,1136.55 1243.8,1138.72L1243.8,1113.5C1222.38,1110.51 1176.11,1122.12 1162.45,1192.41Z" style="fill:white;fill-rule:nonzero;"/>
            </g>
        </g>
    </g>
</svg>
