<?xml version="1.0" encoding="UTF-8" standalone="no"?>
<!DOCTYPE svg PUBLIC "-//W3C//DTD SVG 1.1//EN" "http://www.w3.org/Graphics/SVG/1.1/DTD/svg11.dtd">
<svg width="100%" height="100%" viewBox="0 0 784 589" version="1.1" xmlns="http://www.w3.org/2000/svg" xmlns:xlink="http://www.w3.org/1999/xlink" xml:space="preserve" xmlns:serif="http://www.serif.com/" style="fill-rule:evenodd;clip-rule:evenodd;stroke-linejoin:round;stroke-miterlimit:2;">
    <g transform="matrix(1,0,0,1,-10116.772984,-4374.817548)">
        <g transform="matrix(1,0,0,1,0,-0.322835)">
            <g transform="matrix(0.795181,0,0,0.795181,1359.524049,3079.790985)">
                <path d="M11913.439,1630.153C11913.65,1629.468 11914.283,1629 11915,1629C11915.717,1629 11916.35,1629.468 11916.561,1630.153L11933.867,1686.4C11934.355,1687.987 11935.224,1689.429 11936.397,1690.603C11937.571,1691.776 11939.013,1692.645 11940.6,1693.133L11996.847,1710.439C11997.532,1710.65 11998,1711.283 11998,1712C11998,1712.717 11997.532,1713.35 11996.847,1713.561L11940.6,1730.867C11939.013,1731.355 11937.571,1732.224 11936.397,1733.397C11935.224,1734.571 11934.355,1736.013 11933.867,1737.6L11916.561,1793.847C11916.35,1794.532 11915.717,1795 11915,1795C11914.283,1795 11913.65,1794.532 11913.439,1793.847L11896.133,1737.6C11895.645,1736.013 11894.776,1734.571 11893.603,1733.397C11892.429,1732.224 11890.987,1731.355 11889.4,1730.867L11833.153,1713.561C11832.468,1713.35 11832,1712.717 11832,1712C11832,1711.283 11832.468,1710.65 11833.153,1710.439L11889.4,1693.133C11890.987,1692.645 11892.429,1691.776 11893.603,1690.603C11894.776,1689.429 11895.645,1687.987 11896.133,1686.4L11913.439,1630.153Z" style="fill:rgb(6,6,6);"/>
            </g>
        </g>
        <g transform="matrix(1,0,0,1,0,-0.322835)">
            <g transform="matrix(8.228061,0,0,10.719386,5447.611653,-96.322105)">
                <path d="M638.88,458.126L632.259,461.9L632.259,426.514L650.058,426.514L650.058,472.081L632.259,472.081L578.646,441.039L585.268,437.194L585.268,472.081L567.468,472.081L567.468,426.514L585.268,426.514L638.88,458.126Z" style="fill:rgb(7,7,7);fill-rule:nonzero;"/>
            </g>
        </g>
    </g>
</svg>
